<svg xmlns="http://www.w3.org/2000/svg" width="226.772" height="226.771" viewBox="0 0 226.772 226.771"><g fill="#FFF"><path d="M7.796 83.547c-1.036 1.08-1.732 2.39-2.074 3.844-1.076 4.59 1.516 8.415 5.99 9.463 4.676 1.095 8.57-1.54 9.54-5.673.334-1.424.41-3.422.045-4.558l2.805.477c.273 1.655-.076 3.53-.35 4.696-1.475 6.3-6.504 9.542-12.832 8.06-6.13-1.44-9.163-6.838-7.74-12.91.36-1.54.943-2.996 1.903-4.274l2.713.875zM7.658 74.138l2.127-4.532c1.718-3.658 3.957-6.908 8.38-4.83 2.253 1.06 3.06 3.474 2.42 5.794l.056.024c.704-.67 1.29-.88 2.702-.93l9.01-.037-1.418 3.02-7.744-.177c-2.188-.024-2.6.85-3.26 2.254l-.746 1.59L27.4 80.17l-1.245 2.65L7.658 74.14zm9.195 1.083l1.057-2.25c1.182-2.518.767-4.525-1.01-5.36-1.668-.783-3.325-.01-4.47 2.43l-1.196 2.542 5.62 2.64zM18.74 53.266l6.82-9.196 2.07 1.533-5.075 6.845 4.798 3.557 4.62-6.234 2.07 1.537-4.62 6.234 5.408 4.01 5.077-6.844 2.07 1.535-6.82 9.198L18.74 53.266zM37.324 32.066l2.315-2.02 19.938 9.706-2.402 2.1-4.953-2.514-7.54 6.585 1.825 5.246-2.314 2.02-6.87-21.124zm2.89 1.13l3.597 10.3 6.13-5.35-9.726-4.95zM56.204 21.33l-5.496 3.186-1.292-2.23 13.522-7.84 1.294 2.228-5.498 3.186 8.96 15.448-2.533 1.468-8.956-15.447zM70.69 11.15L81.507 7.4l.844 2.436-8.048 2.79 1.956 5.644 7.328-2.542.845 2.435-7.33 2.54 2.208 6.364 8.048-2.792.844 2.435-10.815 3.75-6.694-19.31zM103.15 18.806c1.425.723 3.4 1.258 5.656 1.197 1.728-.045 3.355-.44 3.313-2.078-.104-3.806-9.697-1.15-9.894-8.585-.13-4.917 4.634-6.39 8.733-6.498 1.96-.053 3.896.19 5.285.622l-.237 4.224c-1.423-.607-3.013-.857-4.563-.816-1.378.036-3.655.215-3.608 1.998.088 3.31 9.687.828 9.882 8.206.14 5.296-4.272 6.848-8.81 6.97-1.902.05-4.282-.182-6.11-.718l.35-4.522zM137.66 26.043c-1.59.113-3.37.255-6.112-.215-5.368-.92-11.104-4.694-9.8-12.31 1.2-7.014 6.703-9.664 13.34-8.528 2.047.35 3.958 1.153 5.792 2.062l-1.18 4.282c-1.567-1.25-3.16-1.997-5.008-2.313-3.808-.65-6.764 1.694-7.406 5.445-.677 3.952 1.71 6.827 5.636 7.5 1.76.3 3.627.145 5.198-.18l-.46 4.258zM149.16 8.815l5.01 2.138-3.067 7.192 5.925 2.525 3.068-7.19 5.01 2.136-8.017 18.8-5.012-2.138 3.435-8.052-5.926-2.53-3.437 8.056-5.007-2.138 8.018-18.8zM181.58 26.093c5.347 4.087 5.7 9.405 1.72 14.615-3.945 5.16-9.25 6.224-14.553 2.173-5.298-4.052-5.666-9.454-1.72-14.614 3.977-5.208 9.206-6.26 14.553-2.173zm-10.38 13.58c2.628 2.007 5.593.296 7.638-2.38 2.15-2.813 2.917-5.982.29-7.99-2.627-2.01-5.487-.44-7.637 2.376-2.046 2.673-2.92 5.983-.29 7.992zM200.992 44.986c4.23 5.235 3.317 10.49-1.785 14.61-5.053 4.083-10.46 3.864-14.656-1.33-4.197-5.19-3.274-10.526 1.78-14.61 5.103-4.12 10.43-3.907 14.662 1.33zM187.694 55.73c2.078 2.57 5.366 1.61 7.982-.506 2.758-2.228 4.25-5.128 2.173-7.7-2.083-2.574-5.23-1.722-7.988.503-2.614 2.117-4.25 5.13-2.168 7.702zM211.57 60.904l2.397 4.888-14.724 7.217 3.714 7.57-3.63 1.78-6.108-12.46 18.35-8.996zM205.48 84.71c-.382 1.554-.452 3.6.117 5.78.436 1.67 1.19 3.17 2.778 2.755 3.682-.96-1.082-9.703 6.114-11.582 4.76-1.242 7.277 3.064 8.31 7.03.496 1.9.7 3.843.595 5.292l-4.167.726c.268-1.522.15-3.126-.24-4.626-.347-1.332-1.037-3.512-2.767-3.06-3.2.833 1.39 9.62-5.746 11.486-5.13 1.337-7.643-2.607-8.788-7-.48-1.84-.797-4.208-.688-6.112l4.48-.687z"/></g><path fill="#366" d="M112.71 187.374c-3.503-1.978-25.77-15.115-40.89-37.562-22.018-31.13-17.842-76.048-17.842-76.048s20.958-18.935 58.732-19.1h1.053c37.773.165 58.73 19.1 58.73 19.1s4.175 44.918-17.84 76.048c-15.123 22.446-37.39 35.583-40.89 37.562l-.5.124-.552-.124z"/><path fill="#FFF" d="M113.755 182.74c4.273-2.457 24.327-14.686 38.088-35.117 20.708-29.28 16.78-71.53 16.78-71.53s-19.577-17.682-54.868-17.96h-1.065c-35.296.278-54.87 17.96-54.87 17.96s-3.93 42.25 16.782 71.53c13.76 20.43 33.815 32.66 38.088 35.118l.558.114.507-.113z"/><g fill="#366"><path d="M113.258 113.11s2.18 1.65 3.667 5.24c2.29 5.52 1.493 10.43 1.493 10.43s-2.403-.77-4.83-.73c-2.427.042-4.69.807-4.69.807s-.938-4.93.96-10.458c1.217-3.556 3.4-5.29 3.4-5.29zM96.89 142.53s.376-2.704 2.783-5.753c3.703-4.69 8.38-6.39 8.38-6.39s.557 2.696 1.756 4.81c1.21 2.13 2.993 3.745 2.993 3.745s-3.887 2.942-9.637 3.98c-3.694.667-6.277-.39-6.277-.39zM130.443 142.534s-2.537 1.02-6.376.453c-5.913-.875-9.716-4.08-9.716-4.08s2.08-1.817 3.295-3.92 1.682-4.525 1.682-4.525 4.56 1.968 8.326 6.436c2.422 2.872 2.79 5.636 2.79 5.636zM113.62 138.22s-1.06-1.008-1.87-2c-.717-.884-1.33-2.068-1.593-2.675-.635-1.453-1.057-3.563-1.057-3.563s1.878-.768 4.475-.782c2.575-.014 4.678.82 4.678.82s-.516 2.965-1.667 4.617c-.402.584-.646 1.016-1.24 1.736-.826.998-1.725 1.848-1.725 1.848z"/></g><g><g fill="#966"><path d="M113.5 104.458s-2.167-1.668-3.625-5.268c-2.248-5.54-1.41-10.444-1.41-10.444s2.396.786 4.824.766c2.427-.02 4.698-.766 4.698-.766s.896 4.937-1.046 10.447c-1.246 3.547-3.443 5.265-3.443 5.265zM130.11 75.172s-.4 2.702-2.833 5.73c-3.743 4.66-8.432 6.323-8.432 6.323s-.532-2.703-1.717-4.824c-1.193-2.14-2.965-3.77-2.965-3.77s3.912-2.908 9.67-3.9c3.704-.64 6.277.442 6.277.442zM96.557 74.893s2.54-1 6.378-.4c5.906.922 9.683 4.16 9.683 4.16s-2.097 1.798-3.327 3.89c-1.23 2.095-1.717 4.515-1.717 4.515s-4.545-2.006-8.273-6.506c-2.4-2.89-2.743-5.66-2.743-5.66zM113.34 79.343s1.057 1.018 1.855 2.017c.71.89 1.315 2.08 1.573 2.687.623 1.46 1.025 3.573 1.025 3.573s-1.883.75-4.48.744c-2.574-.005-4.67-.856-4.67-.856s.54-2.96 1.7-4.604c.413-.582.66-1.01 1.26-1.727.83-.99 1.737-1.834 1.737-1.834z"/></g><g fill="#F29400"><path d="M133.462 77.132s2.18 1.65 3.666 5.24c2.29 5.52 1.493 10.433 1.493 10.433s-2.4-.768-4.83-.728c-2.424.04-4.69.804-4.69.804s-.934-4.927.962-10.455c1.218-3.553 3.4-5.293 3.4-5.293zM117.09 106.553s.376-2.706 2.786-5.753c3.705-4.692 8.38-6.39 8.38-6.39s.555 2.698 1.756 4.81c1.212 2.13 2.997 3.745 2.997 3.745s-3.895 2.94-9.642 3.98c-3.7.666-6.28-.392-6.28-.392zM150.644 106.562s-2.533 1.018-6.374.45c-5.916-.874-9.717-4.082-9.717-4.082s2.078-1.816 3.294-3.918c1.212-2.102 1.68-4.525 1.68-4.525s4.562 1.968 8.33 6.436c2.42 2.873 2.787 5.64 2.787 5.64zM133.824 102.247s-1.065-1.01-1.87-2c-.72-.887-1.333-2.072-1.595-2.677-.634-1.456-1.06-3.564-1.06-3.564s1.88-.767 4.477-.782c2.575-.013 4.675.82 4.675.82s-.513 2.965-1.663 4.618c-.41.586-.652 1.015-1.247 1.737-.822.996-1.72 1.847-1.72 1.847z"/></g><g fill="#996"><path d="M117.05 111.17s2.52-1.052 6.37-.528c5.925.805 9.764 3.966 9.764 3.966s-1.87 1.69-3.06 3.805c-1.19 2.117-1.67 4.458-1.67 4.458s-4.727-1.674-8.547-6.098c-2.453-2.843-2.856-5.602-2.856-5.602zM134.213 140.135s-2.15-1.688-3.57-5.303c-2.18-5.564-1.292-10.46-1.292-10.46s2.61.88 5.04.907c2.45.027 4.743-.7 4.743-.7s.583 4.84-1.42 10.33c-1.285 3.53-3.5 5.225-3.5 5.225zM151.126 111.156s-.396 2.703-2.824 5.736c-3.734 4.666-8.418 6.334-8.418 6.334s-.52-2.712-1.726-4.82c-1.206-2.107-3.063-3.73-3.063-3.73s3.998-2.95 9.758-3.952c3.7-.644 6.273.432 6.273.432zM138.925 123.51s-1.41.41-2.67.607c-1.13.175-2.46.108-3.115.03-1.577-.187-3.613-.883-3.613-.883s.286-2.008 1.582-4.258c1.284-2.233 3.062-3.628 3.062-3.628s2.302 1.938 3.15 3.764c.3.646.55 1.072.872 1.95.448 1.215.73 2.42.73 2.42z"/></g><g fill="#003466"><path d="M109.272 110.915s-.33 2.712-2.688 5.8c-3.625 4.75-8.272 6.528-8.272 6.528s-.54-2.462-1.795-4.542c-1.254-2.078-3.05-3.65-3.05-3.65s3.792-3.285 9.524-4.42c3.688-.732 6.282.285 6.282.285zM75.612 111.523s2.53-1.03 6.375-.48c5.917.852 9.73 4.04 9.73 4.04s-2.05 1.836-3.273 3.933c-1.238 2.12-1.738 4.47-1.738 4.47s-4.495-1.884-8.28-6.337c-2.435-2.864-2.814-5.627-2.814-5.627zM92.448 140.547s-2.152-1.68-3.59-5.29c-2.21-5.55-1.347-10.45-1.347-10.45s2.616.887 5.044.88c2.43-.003 4.758-.817 4.758-.817s.587 4.934-1.388 10.436c-1.267 3.535-3.476 5.24-3.476 5.24zM87.74 123.835s.337-1.428.79-2.625c.406-1.064 1.123-2.19 1.515-2.72.938-1.28 2.55-2.705 2.55-2.705s1.606 1.24 2.923 3.48c1.306 2.22 1.64 4.455 1.64 4.455s-2.822 1.043-4.83.882c-.71-.06-1.205-.054-2.125-.207-1.28-.21-2.464-.56-2.464-.56z"/></g><g fill="#981134"><path d="M109.674 106.433s-2.516 1.063-6.368.563c-5.926-.773-9.786-3.914-9.786-3.914s1.866-1.696 3.04-3.82c1.178-2.124 1.646-4.466 1.646-4.466s4.74 1.647 8.58 6.05c2.473 2.834 2.888 5.587 2.888 5.587zM92.354 77.563s2.157 1.677 3.6 5.285c2.21 5.552 1.35 10.452 1.35 10.452s-2.613-.863-5.044-.88c-2.452-.014-4.74.728-4.74.728s-.61-4.838 1.363-10.338c1.264-3.538 3.47-5.247 3.47-5.247zM75.6 106.638s.383-2.708 2.793-5.75c3.708-4.69 8.387-6.382 8.387-6.382s.532 2.708 1.75 4.81c1.215 2.1 3.082 3.715 3.082 3.715s-3.982 2.97-9.733 4.006c-3.7.662-6.28-.398-6.28-.398zM87.734 94.214s1.406-.42 2.67-.625c1.124-.18 2.456-.12 3.112-.046 1.577.178 3.615.865 3.615.865s-.27 2.01-1.555 4.264c-1.27 2.24-3.045 3.646-3.045 3.646s-2.312-1.924-3.17-3.746c-.303-.647-.556-1.072-.883-1.945-.454-1.213-.743-2.416-.743-2.416z"/></g></g><g fill="#FFF"><path d="M219.34 124.875l-.444 3.713c-.346 2.9-1.648 5.194-4.875 4.808-3.145-.375-3.966-2.965-3.663-5.52l.24-1.988-5.663-.678.243-2.028 14.164 1.693zm-6.956 1.227l-.24 2.008c-.152 1.257.286 2.916 2.154 3.14 1.787.212 2.657-1.577 2.808-2.836l.208-1.724-4.93-.588zM213.713 136.83l-.398 1.752-1.573-.36-.008.04c.94.74 1.453 1.988 1.208 3.063-.128.56-.252.823-.42 1.205l-1.674-.384c.216-.306.34-.675.415-.994.38-1.674-.963-3.132-3.51-3.715l-4.622-1.053.427-1.873 10.156 2.32zM210.216 150.302c-1.046 2.988-3.91 4.236-6.898 3.188-2.814-.985-4.433-3.846-3.397-6.796 1.04-2.97 4.09-4.195 6.906-3.21 2.987 1.048 4.445 3.81 3.39 6.818zm-8.83-3.095c-.744 2.123.854 3.742 2.608 4.356 1.87.656 4.08.154 4.758-1.774.68-1.948-.734-3.72-2.603-4.378-1.754-.614-4.015-.345-4.764 1.795zM193.494 162.645c-2.82-1.443-3.697-3.727-1.992-7.056.5-.983 1.067-1.77 2.338-3.004l1.49.993c-1.27 1.002-1.905 1.662-2.55 2.918-.92 1.8-.25 3.5 1.714 4.5l.91.466.02-.037c-.593-1.22-.452-2.662.154-3.844 1.356-2.658 4.19-2.86 6.592-1.63 2.384 1.217 4.242 3.865 2.81 6.667-.84 1.64-1.904 2.24-3.165 2.238l-.02.038 1.382.705-.807 1.585-8.876-4.54zm5.005.4c1.926.986 4.038.94 4.966-.878.885-1.73-.55-3.542-2.135-4.35-1.745-.896-3.775-.693-4.595.91-.818 1.6.034 3.436 1.764 4.32zM199.948 171.067l-.994 1.497-1.346-.89-.02.034c.617 1.025.66 2.375.05 3.294-.316.478-.525.682-.82.98l-1.43-.95c.312-.21.56-.51.74-.783.945-1.433.202-3.272-1.978-4.713l-3.955-2.616 1.06-1.6 8.693 5.747zM181.937 178.486c.264-.74.48-1.646 1.573-2.97 2.354-2.853 5.166-2.732 7.785-.573 2.382 1.96 2.833 4.852.958 7.122-2.208 2.683-4.877 1.936-7.465-.197l4.732-5.74c-1.592-1.31-3.707-.963-4.865.44-.805.976-1.237 2.53-1.237 3.138l-1.48-1.22zm5.256 2.714c1.23 1.015 2.837 1.122 3.89-.155 1.195-1.45.49-3.037-.457-4.008l-3.433 4.163zM181.102 181.702c-.883.177-1.826.76-2.218 1.147-.626.613-1.143 1.633-.358 2.435 1.332 1.355 4.44-1.92 6.48.164 1.515 1.547 1.09 3.418-.38 4.86-.64.63-1.295 1.014-1.99 1.38l-1.055-1.306c.492-.11 1.496-.724 1.814-1.037.7-.686 1.025-1.58.426-2.19-1.487-1.516-4.277 2.08-6.607-.296-1.558-1.59-1.006-3.562.32-4.862.7-.686 1.485-1.313 2.444-1.59l1.125 1.294zM175.082 187.478c-.897.102-1.887.6-2.313.95-.683.56-1.284 1.532-.57 2.402 1.207 1.465 4.593-1.53 6.45.73 1.376 1.67.79 3.5-.804 4.812-.694.57-1.378.897-2.105 1.204l-.938-1.397c.5-.07 1.554-.59 1.902-.876.757-.624 1.16-1.486.614-2.147-1.35-1.642-4.45 1.702-6.567-.873-1.414-1.72-.69-3.64.748-4.82.757-.624 1.596-1.18 2.575-1.376l1.01 1.39zM172.534 200.126l-1.572 1.104-5.99-8.525 1.572-1.103 5.99 8.524zm-.333 3.08l1.772-1.246 1.243 1.772-1.77 1.246-1.244-1.772zM157.87 197.125l1.983-1.147 8.456 7.15-1.82 1.054-6.7-5.947-.034.02 1.76 8.8-1.662.964-1.983-10.895zM145.643 203.4c.57-.537 1.18-1.242 2.757-1.92 3.4-1.458 5.846-.064 7.186 3.055 1.218 2.835.298 5.61-2.41 6.77-3.19 1.375-5.224-.512-6.547-3.592l6.837-2.935c-.816-1.9-2.856-2.556-4.527-1.84-1.166.5-2.258 1.684-2.537 2.227l-.76-1.766zm3.428 4.823c.63 1.464 2.012 2.294 3.534 1.64 1.725-.74 1.828-2.473 1.426-3.77l-4.96 2.13zM128.025 219.664c1.112.443 2.24.552 4.043.188 3.227-.65 4.898-3.427 4.27-6.554-.66-3.286-3.467-4.995-6.373-4.41-1.382.28-1.715.493-2.195.69l.855 4.25 2.946-.59.33 1.643-4.95.996-1.463-7.273c.708-.415 1.958-1.04 4.143-1.48 4.43-.895 7.947 1.358 8.844 5.807.868 4.31-1.682 7.805-5.95 8.664-2.044.412-3.005.294-4.25.127l-.25-2.056zM122.922 223.77l-1.913.167-1.347-15.253 1.912-.17 1.347 15.255zM111.205 219.625c-3.164-.03-5.267-2.342-5.23-5.51.03-2.983 2.222-5.43 5.348-5.4 3.146.035 5.284 2.53 5.255 5.512-.035 3.167-2.182 5.433-5.373 5.398zm.1-9.357c-2.247-.023-3.266 2.01-3.29 3.87-.02 1.982 1.167 3.915 3.21 3.936 2.062.022 3.29-1.886 3.31-3.867.02-1.862-.962-3.914-3.23-3.94zM101.122 223.807l-1.902-.282.927-6.265-.042-.006c-.725.865-1.857 1.42-3.658 1.154-2.993-.44-4.087-3.102-3.676-5.87.416-2.83 2.136-5.385 5.247-4.926 1.84.27 2.877 1.375 3.267 2.217l.042.005.214-1.457 1.82.27-2.238 15.16zm-4.045-6.876c2.06.306 3.342-1.51 3.623-3.43.25-1.718-.32-3.97-2.466-4.286-2.038-.3-3.225 1.856-3.426 3.48-.312 1.852.21 3.932 2.27 4.237zM87.807 215.737c-1.082.286-2.293.366-3.57.004-2.868-.813-3.627-2.556-2.852-5.29l1.176-4.146c.325-1.138.436-1.68.48-1.986l1.73.492-.367 1.295.038.012c.606-.486 1.85-1.132 3.54-.65 2.162.612 3.41 1.984 2.79 4.166-.716 2.514-3.69 2.52-5.594 1.98-.73-.208-1.24-.353-1.957-.598-.49 1.73-.113 2.79 1.735 3.315 1.04.297 2.273.22 3.196-.197l-.343 1.604zm-4.196-6.098c.395.112.776.262 1.17.374 1 .283 3.52.83 4.024-.94.3-1.06-.56-1.92-1.404-2.16-1.828-.52-3.114.348-3.538 1.842l-.25.883zM74.115 217.31l-1.79-.698 5.554-14.282 1.788.694-5.553 14.285zM61.612 210.513l-6.9-4.038.91-1.553 5.135 3.005 2.105-3.598-4.676-2.74.91-1.552 4.676 2.736 2.376-4.058-5.137-3.007.91-1.553 6.9 4.037-7.208 12.32zM52.488 189.01l.032.027c.88-.302 2.392-.32 3.862.818 2.488 1.928 1.822 4.953.084 7.197-1.713 2.213-4.39 3.268-6.78 1.416-1.44-1.113-1.826-2.316-1.706-3.44l-.032-.023-3.878 5.007-1.518-1.176 9.383-12.113 1.453 1.125-.9 1.163zm2.587 1.798c-1.71-1.327-3.735-.182-4.8 1.193-1.188 1.534-1.61 3.714.04 4.99 1.646 1.277 3.493.227 4.623-1.3 1.034-1.268 1.77-3.62.137-4.882zM42.938 177.922l1.305 1.325-1.18 1.162.03.027c1.245-.424 2.73.063 3.747 1.096 1.895 1.92 1.548 3.957-.446 5.92l-4.408 4.348-1.348-1.368 3.842-3.785c1.73-1.708 2.2-2.92 1.097-4.182-1.534-1.56-3.474-1.023-5.277.757l-3.434 3.384-1.35-1.366 7.422-7.318zM29.857 175.364c.21.77.547 1.438.924 1.92 1.318 1.696 3.574 1.47 5.14.255 1.47-1.144 2.47-3.188.952-5.14-.4-.517-1.064-1.037-1.734-1.266l1.27-1.167c.778.403 1.39 1.092 1.818 1.642 1.93 2.484 1.305 5.712-1.052 7.543-2.502 1.946-5.614 1.67-7.57-.85-.476-.612-.945-1.515-1.106-2.09l1.36-.85zM26.678 172.542c-.99-.522-1.936-1.285-2.628-2.418-1.556-2.546-.93-4.34 1.495-5.824l3.68-2.25c1.013-.617 1.46-.94 1.7-1.135l.94 1.536-1.152.704.022.034c.774.054 2.127.425 3.045 1.924 1.172 1.92 1.154 3.774-.78 4.957-2.232 1.363-4.422-.652-5.457-2.343-.394-.646-.67-1.1-1.03-1.765-1.536.938-1.98 1.975-.98 3.616.566.923 1.523 1.704 2.485 2.026l-1.34.938zm1.055-7.33c.215.35.39.72.605 1.07.543.89 2.025 3.002 3.595 2.042.942-.576.894-1.79.436-2.542-.992-1.62-2.525-1.858-3.852-1.047l-.785.478zM19.018 156.677l1.18 2.493 5.15-2.438c1.09-.515 1.366-1.46.99-2.254-.252-.534-.602-.843-.89-1.023l1.477-.698c.294.333.696.8.957 1.353.848 1.794.522 3.303-1.36 4.193l-5.504 2.603 1.004 2.125-1.402.665-1.004-2.124-2.18 1.032-1.375-1.473 2.733-1.295-1.18-2.49 1.405-.668zM13.342 152.86l.774 2.02-2.022.777-.775-2.023 2.022-.775zm2.904 1.07l-.687-1.79 9.726-3.73.688 1.792-9.728 3.73zM12.46 143.292c-.832-3.057.82-5.707 3.874-6.537 2.88-.786 5.832.657 6.653 3.672.828 3.035-.99 5.774-3.87 6.557-3.054.83-5.82-.618-6.658-3.692zm9.03-2.458c-.59-2.17-2.826-2.598-4.62-2.108-1.912.52-3.45 2.187-2.912 4.16.542 1.99 2.712 2.65 4.624 2.127 1.794-.488 3.503-1.99 2.907-4.18zM10.553 134.092l-.24-1.843 1.64-.216-.004-.04c-1.252-.416-2.14-1.7-2.328-3.138-.348-2.676 1.157-4.088 3.934-4.45l6.138-.8.25 1.903-5.35.696c-2.41.317-3.52.997-3.402 2.67.283 2.17 2.15 2.913 4.665 2.585l4.78-.624.25 1.905-10.334 1.352z"/></g></svg>