<?xml version="1.0" encoding="utf-8"?>
<!-- Generator: Adobe Illustrator 16.0.0, SVG Export Plug-In . SVG Version: 6.00 Build 0)  -->
<!DOCTYPE svg PUBLIC "-//W3C//DTD SVG 1.1//EN" "http://www.w3.org/Graphics/SVG/1.1/DTD/svg11.dtd">
<svg version="1.1" id="Ebene_1" xmlns="http://www.w3.org/2000/svg" xmlns:xlink="http://www.w3.org/1999/xlink" x="0px" y="0px"
	 width="102.736px" height="102.977px" viewBox="0 0 102.736 102.977" enable-background="new 0 0 102.736 102.977"
	 xml:space="preserve">
<g>
	<g>
		<path fill="#FFFFFF" d="M2.311,37.591c-0.482,0.503-0.807,1.113-0.966,1.79c-0.501,2.137,0.706,3.918,2.79,4.407
			c2.177,0.51,3.991-0.718,4.442-2.642c0.156-0.663,0.191-1.594,0.021-2.123l1.307,0.222c0.127,0.771-0.036,1.644-0.163,2.188
			c-0.688,2.934-3.03,4.444-5.977,3.753c-2.855-0.669-4.268-3.185-3.604-6.012c0.167-0.717,0.439-1.396,0.886-1.991L2.311,37.591z"
			/>
		<path fill="#FFFFFF" d="M2.247,33.209l0.991-2.11c0.8-1.704,1.843-3.217,3.903-2.25c1.049,0.493,1.424,1.618,1.127,2.699
			l0.025,0.011c0.328-0.313,0.6-0.411,1.258-0.433l4.196-0.017l-0.66,1.406L9.48,32.433c-1.019-0.012-1.21,0.396-1.518,1.05
			l-0.348,0.741l3.826,1.796l-0.579,1.234L2.247,33.209z M6.529,33.713l0.492-1.049c0.551-1.172,0.357-2.107-0.47-2.496
			c-0.777-0.365-1.549-0.004-2.082,1.131l-0.557,1.185L6.529,33.713z"/>
		<path fill="#FFFFFF" d="M7.408,23.488l3.176-4.283l0.964,0.714l-2.363,3.188l2.235,1.657l2.152-2.903l0.964,0.715l-2.152,2.903
			l2.519,1.867l2.364-3.188l0.963,0.715l-3.175,4.283L7.408,23.488z"/>
		<path fill="#FFFFFF" d="M16.063,13.614l1.078-0.941l9.287,4.521l-1.119,0.978l-2.307-1.17l-3.511,3.067l0.85,2.443l-1.078,0.941
			L16.063,13.614z M17.409,14.14l1.675,4.798l2.854-2.493L17.409,14.14z"/>
		<path fill="#FFFFFF" d="M24.856,8.614l-2.56,1.484L21.695,9.06l6.298-3.652l0.603,1.038L26.035,7.93l4.173,7.195l-1.179,0.684
			L24.856,8.614z"/>
		<path fill="#FFFFFF" d="M31.604,3.873l5.037-1.747l0.393,1.134L33.285,4.56l0.911,2.628l3.413-1.184l0.394,1.134l-3.414,1.184
			l1.028,2.963l3.749-1.3l0.393,1.134l-5.037,1.747L31.604,3.873z"/>
		<path fill="#FFFFFF" d="M46.721,7.438c0.664,0.337,1.584,0.586,2.635,0.558c0.805-0.021,1.563-0.205,1.543-0.968
			c-0.048-1.772-4.516-0.536-4.607-3.999c-0.061-2.29,2.158-2.976,4.067-3.026c0.913-0.024,1.815,0.088,2.462,0.29L52.71,2.26
			c-0.663-0.283-1.403-0.399-2.125-0.38c-0.642,0.017-1.702,0.1-1.681,0.931c0.041,1.541,4.512,0.386,4.603,3.822
			c0.065,2.467-1.989,3.189-4.103,3.246c-0.886,0.023-1.994-0.084-2.846-0.334L46.721,7.438z"/>
		<path fill="#FFFFFF" d="M62.794,10.809c-0.741,0.053-1.569,0.119-2.847-0.1c-2.5-0.428-5.172-2.186-4.564-5.733
			c0.56-3.266,3.122-4.5,6.213-3.972c0.954,0.163,1.844,0.537,2.698,0.96l-0.549,1.995c-0.73-0.582-1.473-0.93-2.333-1.078
			c-1.773-0.303-3.15,0.789-3.449,2.536c-0.315,1.841,0.797,3.18,2.625,3.493c0.819,0.14,1.689,0.067,2.421-0.084L62.794,10.809z"/>
		<path fill="#FFFFFF" d="M68.15,2.786l2.333,0.996l-1.429,3.35l2.76,1.176l1.429-3.349l2.333,0.995l-3.733,8.756l-2.334-0.996
			l1.6-3.75l-2.76-1.178l-1.601,3.751l-2.332-0.996L68.15,2.786z"/>
		<path fill="#FFFFFF" d="M83.249,10.833c2.49,1.904,2.655,4.38,0.801,6.807c-1.837,2.403-4.308,2.899-6.777,1.012
			c-2.468-1.888-2.639-4.403-0.802-6.807C78.323,9.419,80.759,8.929,83.249,10.833z M78.414,17.157
			c1.225,0.935,2.605,0.138,3.558-1.107c1.002-1.311,1.358-2.787,0.135-3.722c-1.224-0.935-2.556-0.204-3.557,1.107
			C77.597,14.679,77.19,16.221,78.414,17.157z"/>
		<path fill="#FFFFFF" d="M92.29,19.632c1.97,2.438,1.545,4.885-0.831,6.805c-2.354,1.901-4.872,1.799-6.826-0.619
			c-1.955-2.418-1.525-4.903,0.829-6.805C87.838,17.093,90.319,17.192,92.29,19.632z M86.097,24.635
			c0.968,1.198,2.499,0.75,3.718-0.235c1.284-1.038,1.979-2.389,1.012-3.587c-0.97-1.198-2.436-0.801-3.72,0.235
			C85.889,22.034,85.127,23.437,86.097,24.635z"/>
		<path fill="#FFFFFF" d="M97.217,27.045l1.116,2.277l-6.857,3.361l1.729,3.526l-1.69,0.829l-2.845-5.804L97.217,27.045z"/>
		<path fill="#FFFFFF" d="M94.38,38.133c-0.178,0.723-0.21,1.676,0.055,2.692c0.203,0.778,0.554,1.476,1.294,1.283
			c1.715-0.447-0.504-4.519,2.848-5.394c2.217-0.579,3.39,1.427,3.87,3.274c0.231,0.884,0.326,1.79,0.277,2.465l-1.94,0.338
			c0.125-0.709,0.07-1.457-0.112-2.155c-0.161-0.621-0.482-1.636-1.288-1.425c-1.491,0.388,0.647,4.481-2.677,5.35
			c-2.389,0.623-3.56-1.214-4.093-3.259c-0.223-0.857-0.371-1.96-0.32-2.847L94.38,38.133z"/>
	</g>
	<path fill="#FFFFFF" stroke="#1A666A" stroke-miterlimit="10" d="M23.997,37.912"/>
	<g>
		<g opacity="0.6">
			
				<image overflow="visible" width="539" height="559" xlink:href="EAFD1E91.png"  transform="matrix(0.24 0 0 0.24 -12.1411 -11.2495)">
			</image>
		</g>
		<g>
			<path fill="#39676A" d="M51.174,85.948c-1.632-0.921-12.002-7.04-19.044-17.494c-10.254-14.498-8.31-35.418-8.31-35.418
				s9.761-8.819,27.354-8.896h0.49c17.593,0.077,27.354,8.896,27.354,8.896s1.944,20.92-8.31,35.418
				c-7.043,10.454-17.413,16.573-19.044,17.494l-0.232,0.058L51.174,85.948z"/>
			<path fill="#FFFFFF" d="M51.66,83.79c1.99-1.145,11.33-6.84,17.739-16.356c9.645-13.637,7.815-33.314,7.815-33.314
				s-9.118-8.235-25.555-8.364h-0.496c-16.439,0.129-25.556,8.364-25.556,8.364s-1.829,19.678,7.816,33.314
				c6.409,9.516,15.749,15.211,17.739,16.356l0.26,0.053L51.66,83.79z"/>
		</g>
		<path fill="#FFFFFF" stroke="#1A666A" stroke-miterlimit="10" d="M35.019,70.99"/>
		<g>
			<path fill="#39676A" d="M51.429,51.36c0,0,1.015,0.768,1.708,2.44c1.066,2.571,0.695,4.858,0.695,4.858s-1.119-0.358-2.25-0.339
				c-1.13,0.019-2.184,0.375-2.184,0.375s-0.438-2.296,0.447-4.871C50.412,52.167,51.429,51.36,51.429,51.36z"/>
			<path fill="#39676A" d="M43.805,65.063c0,0,0.176-1.26,1.297-2.68c1.725-2.184,3.902-2.976,3.902-2.976s0.26,1.255,0.818,2.24
				c0.564,0.992,1.395,1.744,1.395,1.744s-1.811,1.37-4.488,1.853C45.008,65.555,43.805,65.063,43.805,65.063z"/>
			<path fill="#39676A" d="M59.433,65.064c0,0-1.182,0.476-2.97,0.211c-2.754-0.407-4.525-1.9-4.525-1.9s0.969-0.846,1.534-1.825
				s0.783-2.108,0.783-2.108s2.124,0.917,3.878,2.998C59.261,63.776,59.433,65.064,59.433,65.064z"/>
			<path fill="#39676A" d="M51.598,63.055c0,0-0.494-0.47-0.871-0.931c-0.334-0.412-0.619-0.964-0.742-1.247
				c-0.296-0.677-0.492-1.66-0.492-1.66s0.875-0.357,2.084-0.364c1.199-0.006,2.179,0.381,2.179,0.381s-0.24,1.381-0.776,2.151
				c-0.188,0.272-0.301,0.473-0.578,0.809C52.017,62.659,51.598,63.055,51.598,63.055z"/>
		</g>
		<g>
			<g>
				<path fill="#9A676A" d="M51.541,47.331c0,0-1.009-0.777-1.688-2.454c-1.047-2.58-0.656-4.864-0.656-4.864
					s1.115,0.366,2.246,0.357c1.131-0.01,2.188-0.357,2.188-0.357s0.417,2.299-0.487,4.866
					C52.564,46.53,51.541,47.331,51.541,47.331z"/>
				<path fill="#9A676A" d="M59.277,33.69c0,0-0.187,1.258-1.319,2.668c-1.743,2.171-3.927,2.945-3.927,2.945
					s-0.248-1.259-0.8-2.247c-0.556-0.998-1.381-1.756-1.381-1.756s1.822-1.354,4.504-1.816
					C58.079,33.187,59.277,33.69,59.277,33.69z"/>
				<path fill="#9A676A" d="M43.65,33.561c0,0,1.184-0.466,2.971-0.187c2.751,0.43,4.51,1.938,4.51,1.938s-0.977,0.838-1.55,1.813
					c-0.573,0.975-0.8,2.102-0.8,2.102s-2.117-0.934-3.854-3.03C43.811,34.85,43.65,33.561,43.65,33.561z"/>
				<path fill="#9A676A" d="M51.467,35.633c0,0,0.492,0.474,0.864,0.939c0.331,0.414,0.612,0.969,0.732,1.251
					c0.29,0.68,0.478,1.664,0.478,1.664s-0.877,0.35-2.086,0.347c-1.199-0.002-2.176-0.398-2.176-0.398s0.251-1.379,0.792-2.145
					c0.192-0.271,0.307-0.47,0.587-0.804C51.045,36.026,51.467,35.633,51.467,35.633z"/>
			</g>
			<g>
				<path fill="#F39200" d="M60.839,34.604c0,0,1.015,0.769,1.707,2.44c1.066,2.572,0.695,4.859,0.695,4.859
					s-1.118-0.357-2.25-0.339c-1.129,0.018-2.184,0.375-2.184,0.375s-0.436-2.295,0.447-4.87
					C59.822,35.414,60.839,34.604,60.839,34.604z"/>
				<path fill="#F39200" d="M53.213,48.306c0,0,0.176-1.26,1.298-2.68c1.726-2.185,3.903-2.976,3.903-2.976s0.258,1.257,0.817,2.24
					c0.564,0.993,1.396,1.745,1.396,1.745s-1.813,1.369-4.49,1.853C54.414,48.799,53.213,48.306,53.213,48.306z"/>
				<path fill="#F39200" d="M68.841,48.31c0,0-1.18,0.474-2.969,0.21c-2.755-0.407-4.525-1.901-4.525-1.901s0.968-0.846,1.534-1.825
					c0.564-0.979,0.782-2.107,0.782-2.107s2.125,0.917,3.88,2.998C68.67,47.022,68.841,48.31,68.841,48.31z"/>
				<path fill="#F39200" d="M61.007,46.3c0,0-0.496-0.47-0.871-0.932c-0.335-0.413-0.62-0.964-0.742-1.246
					c-0.295-0.678-0.493-1.66-0.493-1.66s0.875-0.357,2.085-0.364c1.199-0.006,2.178,0.382,2.178,0.382s-0.239,1.381-0.774,2.151
					c-0.19,0.273-0.304,0.473-0.58,0.809C61.425,45.904,61.007,46.3,61.007,46.3z"/>
			</g>
			<g>
				<path fill="#999969" d="M53.195,50.457c0,0,1.174-0.49,2.967-0.246c2.759,0.375,4.547,1.847,4.547,1.847
					s-0.871,0.787-1.425,1.772c-0.554,0.986-0.778,2.076-0.778,2.076s-2.201-0.78-3.98-2.84
					C53.383,51.741,53.195,50.457,53.195,50.457z"/>
				<path fill="#999969" d="M61.188,63.947c0,0-1.001-0.786-1.662-2.47c-1.016-2.591-0.603-4.871-0.603-4.871
					s1.215,0.409,2.347,0.422c1.142,0.013,2.209-0.325,2.209-0.325s0.271,2.254-0.661,4.811
					C62.22,63.157,61.188,63.947,61.188,63.947z"/>
				<path fill="#999969" d="M69.065,50.45c0,0-0.185,1.259-1.315,2.671c-1.739,2.173-3.921,2.95-3.921,2.95
					s-0.242-1.263-0.804-2.245c-0.562-0.982-1.427-1.738-1.427-1.738s1.862-1.373,4.545-1.84
					C67.867,49.949,69.065,50.45,69.065,50.45z"/>
				<path fill="#999969" d="M63.383,56.204c0,0-0.656,0.19-1.244,0.282c-0.525,0.082-1.146,0.05-1.45,0.014
					c-0.734-0.087-1.683-0.411-1.683-0.411s0.133-0.936,0.736-1.983c0.599-1.04,1.427-1.69,1.427-1.69s1.072,0.903,1.467,1.753
					c0.141,0.301,0.257,0.5,0.406,0.909C63.251,55.643,63.383,56.204,63.383,56.204z"/>
			</g>
			<g>
				<path fill="#243267" d="M49.572,50.337c0,0-0.153,1.263-1.252,2.702c-1.688,2.212-3.853,3.04-3.853,3.04
					s-0.251-1.147-0.836-2.115c-0.584-0.968-1.421-1.701-1.421-1.701s1.767-1.529,4.437-2.058
					C48.364,49.864,49.572,50.337,49.572,50.337z"/>
				<path fill="#243267" d="M33.896,50.621c0,0,1.178-0.48,2.969-0.224c2.755,0.397,4.532,1.882,4.532,1.882
					s-0.955,0.854-1.525,1.831c-0.577,0.987-0.81,2.083-0.81,2.083s-2.094-0.878-3.856-2.952
					C34.072,51.908,33.896,50.621,33.896,50.621z"/>
				<path fill="#243267" d="M41.737,64.139c0,0-1.002-0.783-1.672-2.463c-1.03-2.585-0.627-4.867-0.627-4.867
					s1.218,0.413,2.349,0.41c1.132-0.002,2.216-0.381,2.216-0.381s0.273,2.298-0.646,4.86
					C42.766,63.344,41.737,64.139,41.737,64.139z"/>
				<path fill="#243267" d="M39.543,56.355c0,0,0.157-0.665,0.368-1.223c0.189-0.496,0.523-1.02,0.706-1.267
					c0.437-0.595,1.188-1.259,1.188-1.259s0.748,0.577,1.361,1.62c0.608,1.035,0.764,2.075,0.764,2.075s-1.314,0.486-2.249,0.411
					c-0.331-0.028-0.562-0.025-0.99-0.096C40.095,56.518,39.543,56.355,39.543,56.355z"/>
			</g>
			<g>
				<path fill="#991834" d="M49.76,48.25c0,0-1.172,0.495-2.966,0.263c-2.76-0.36-4.558-1.823-4.558-1.823s0.869-0.79,1.416-1.78
					c0.549-0.989,0.767-2.08,0.767-2.08s2.207,0.767,3.996,2.817C49.566,46.968,49.76,48.25,49.76,48.25z"/>
				<path fill="#991834" d="M41.693,34.804c0,0,1.004,0.781,1.676,2.461c1.029,2.586,0.629,4.868,0.629,4.868
					s-1.217-0.402-2.349-0.409c-1.142-0.007-2.207,0.338-2.207,0.338s-0.284-2.253,0.634-4.815
					C40.665,35.6,41.693,34.804,41.693,34.804z"/>
				<path fill="#991834" d="M33.89,48.346c0,0,0.178-1.261,1.301-2.679c1.727-2.184,3.906-2.972,3.906-2.972s0.248,1.261,0.815,2.24
					c0.565,0.978,1.435,1.73,1.435,1.73s-1.854,1.383-4.533,1.865C35.092,48.839,33.89,48.346,33.89,48.346z"/>
				<path fill="#991834" d="M39.542,42.56c0,0,0.655-0.195,1.243-0.291c0.523-0.083,1.144-0.055,1.45-0.021
					c0.734,0.083,1.684,0.403,1.684,0.403s-0.127,0.936-0.725,1.986c-0.592,1.043-1.418,1.698-1.418,1.698s-1.077-0.896-1.477-1.744
					c-0.141-0.302-0.259-0.5-0.411-0.906C39.676,43.119,39.542,42.56,39.542,42.56z"/>
			</g>
		</g>
	</g>
	<g>
		<path fill="#FFFFFF" d="M100.836,56.839l-0.207,1.729c-0.161,1.351-0.768,2.419-2.271,2.239c-1.465-0.174-1.848-1.381-1.706-2.571
			l0.111-0.926l-2.637-0.315l0.113-0.945L100.836,56.839z M97.596,57.411l-0.112,0.936c-0.07,0.585,0.134,1.358,1.004,1.462
			c0.832,0.099,1.237-0.734,1.308-1.32l0.097-0.803L97.596,57.411z"/>
		<path fill="#FFFFFF" d="M98.215,62.407l-0.186,0.816l-0.732-0.168l-0.004,0.02C97.731,63.418,97.97,64,97.855,64.5
			c-0.06,0.26-0.117,0.383-0.196,0.561l-0.779-0.179c0.101-0.143,0.159-0.314,0.193-0.463c0.178-0.78-0.448-1.458-1.635-1.73
			l-2.152-0.49l0.198-0.872L98.215,62.407z"/>
		<path fill="#FFFFFF" d="M96.586,68.682c-0.487,1.392-1.821,1.973-3.213,1.485c-1.311-0.459-2.064-1.792-1.582-3.166
			c0.484-1.383,1.904-1.954,3.216-1.495C96.398,65.995,97.077,67.28,96.586,68.682z M92.474,67.24
			c-0.347,0.989,0.397,1.743,1.215,2.029c0.871,0.306,1.9,0.072,2.216-0.826c0.317-0.907-0.342-1.732-1.212-2.039
			C93.875,66.118,92.822,66.244,92.474,67.24z"/>
		<path fill="#FFFFFF" d="M88.798,74.43c-1.313-0.672-1.722-1.735-0.928-3.286c0.233-0.458,0.497-0.824,1.089-1.399l0.694,0.462
			c-0.592,0.467-0.888,0.774-1.188,1.359c-0.429,0.839-0.117,1.63,0.798,2.097l0.424,0.217l0.009-0.017
			c-0.275-0.568-0.21-1.24,0.072-1.791c0.632-1.238,1.952-1.332,3.07-0.759c1.11,0.567,1.976,1.8,1.309,3.105
			c-0.391,0.764-0.887,1.044-1.474,1.042l-0.009,0.018l0.644,0.328l-0.376,0.738L88.798,74.43z M91.129,74.617
			c0.897,0.459,1.881,0.438,2.313-0.409c0.412-0.805-0.257-1.65-0.994-2.026c-0.813-0.417-1.759-0.322-2.141,0.424
			C89.927,73.351,90.323,74.206,91.129,74.617z"/>
		<path fill="#FFFFFF" d="M91.804,78.353l-0.463,0.697l-0.627-0.415l-0.01,0.016c0.288,0.478,0.308,1.106,0.023,1.534
			c-0.146,0.223-0.244,0.317-0.381,0.456L89.68,80.2c0.146-0.099,0.261-0.238,0.345-0.365c0.44-0.667,0.095-1.523-0.921-2.195
			l-1.842-1.218l0.493-0.746L91.804,78.353z"/>
		<path fill="#FFFFFF" d="M83.415,81.808c0.123-0.344,0.224-0.767,0.732-1.383c1.097-1.329,2.406-1.272,3.626-0.267
			c1.109,0.914,1.319,2.26,0.446,3.317c-1.028,1.25-2.271,0.902-3.477-0.092l2.204-2.673c-0.741-0.61-1.727-0.449-2.266,0.205
			c-0.375,0.455-0.576,1.178-0.576,1.462L83.415,81.808z M85.863,83.072c0.572,0.473,1.321,0.522,1.812-0.072
			c0.557-0.675,0.229-1.415-0.213-1.867L85.863,83.072z"/>
		<path fill="#FFFFFF" d="M83.026,83.306c-0.411,0.083-0.851,0.354-1.033,0.534c-0.292,0.286-0.532,0.761-0.167,1.135
			c0.62,0.631,2.067-0.894,3.019,0.076c0.705,0.721,0.508,1.592-0.178,2.264c-0.298,0.293-0.604,0.472-0.927,0.643l-0.491-0.609
			c0.229-0.052,0.696-0.337,0.845-0.483c0.326-0.319,0.478-0.735,0.198-1.02c-0.692-0.706-1.992,0.969-3.077-0.138
			c-0.726-0.74-0.469-1.659,0.149-2.265c0.326-0.319,0.691-0.611,1.138-0.741L83.026,83.306z"/>
		<path fill="#FFFFFF" d="M80.223,85.996c-0.418,0.047-0.879,0.279-1.077,0.443c-0.317,0.26-0.598,0.713-0.265,1.118
			c0.562,0.683,2.139-0.712,3.004,0.34c0.641,0.778,0.368,1.631-0.375,2.242c-0.323,0.266-0.642,0.418-0.98,0.561l-0.438-0.651
			c0.233-0.032,0.724-0.274,0.886-0.408c0.353-0.291,0.54-0.692,0.286-1c-0.629-0.765-2.072,0.792-3.059-0.407
			c-0.659-0.801-0.321-1.695,0.348-2.245c0.353-0.291,0.743-0.55,1.199-0.641L80.223,85.996z"/>
		<path fill="#FFFFFF" d="M79.036,91.887l-0.732,0.514l-2.789-3.971l0.731-0.514L79.036,91.887z M78.881,93.321l0.825-0.58
			l0.579,0.825l-0.824,0.58L78.881,93.321z"/>
		<path fill="#FFFFFF" d="M72.207,90.489l0.923-0.535l3.938,3.33l-0.848,0.491l-3.12-2.77l-0.016,0.01l0.82,4.098l-0.774,0.449
			L72.207,90.489z"/>
		<path fill="#FFFFFF" d="M66.512,93.411c0.266-0.25,0.55-0.578,1.284-0.894c1.584-0.68,2.723-0.03,3.347,1.422
			c0.567,1.321,0.139,2.613-1.122,3.154c-1.486,0.64-2.434-0.239-3.05-1.673l3.185-1.367c-0.38-0.884-1.33-1.19-2.108-0.857
			c-0.543,0.232-1.052,0.784-1.182,1.037L66.512,93.411z M68.108,95.658c0.293,0.682,0.937,1.068,1.646,0.764
			c0.804-0.346,0.852-1.152,0.664-1.757L68.108,95.658z"/>
		<path fill="#FFFFFF" d="M58.307,100.986c0.518,0.207,1.043,0.257,1.883,0.087c1.503-0.303,2.281-1.596,1.988-3.052
			c-0.308-1.53-1.614-2.326-2.968-2.054c-0.644,0.13-0.799,0.229-1.022,0.322l0.398,1.979l1.372-0.275l0.153,0.765l-2.306,0.463
			l-0.682-3.387c0.33-0.193,0.912-0.485,1.93-0.69c2.063-0.416,3.701,0.633,4.119,2.705c0.404,2.008-0.783,3.635-2.771,4.035
			c-0.952,0.192-1.399,0.137-1.979,0.059L58.307,100.986z"/>
		<path fill="#FFFFFF" d="M55.93,102.898l-0.891,0.079l-0.627-7.104l0.891-0.079L55.93,102.898z"/>
		<path fill="#FFFFFF" d="M50.473,100.968c-1.474-0.015-2.453-1.091-2.437-2.566c0.015-1.389,1.035-2.529,2.491-2.515
			c1.465,0.016,2.461,1.178,2.447,2.567C52.959,99.929,51.959,100.984,50.473,100.968z M50.52,96.61
			c-1.047-0.011-1.521,0.936-1.532,1.802c-0.01,0.923,0.543,1.823,1.494,1.833c0.961,0.01,1.532-0.878,1.542-1.801
			C52.033,97.578,51.575,96.622,50.52,96.61z"/>
		<path fill="#FFFFFF" d="M45.776,102.916l-0.886-0.131l0.432-2.918l-0.02-0.003c-0.338,0.403-0.865,0.661-1.704,0.537
			c-1.394-0.205-1.903-1.444-1.712-2.733c0.193-1.318,0.994-2.508,2.443-2.294c0.857,0.126,1.34,0.64,1.521,1.032l0.02,0.003
			l0.1-0.678l0.848,0.125L45.776,102.916z M43.893,99.713c0.959,0.142,1.557-0.704,1.688-1.598c0.117-0.8-0.149-1.85-1.148-1.997
			c-0.949-0.14-1.502,0.865-1.596,1.621C42.69,98.603,42.934,99.572,43.893,99.713z"/>
		<path fill="#FFFFFF" d="M39.575,99.158c-0.504,0.133-1.068,0.17-1.663,0.002c-1.335-0.379-1.689-1.191-1.328-2.464l0.548-1.932
			c0.151-0.53,0.203-0.782,0.223-0.925l0.806,0.229l-0.171,0.604l0.018,0.006c0.282-0.227,0.862-0.527,1.648-0.303
			c1.007,0.285,1.587,0.924,1.299,1.94c-0.333,1.171-1.718,1.173-2.605,0.922c-0.339-0.096-0.577-0.164-0.911-0.278
			c-0.228,0.805-0.052,1.3,0.809,1.544c0.484,0.138,1.059,0.103,1.489-0.092L39.575,99.158z M37.621,96.317
			c0.184,0.053,0.361,0.123,0.544,0.175c0.466,0.132,1.64,0.387,1.875-0.438c0.14-0.494-0.26-0.895-0.654-1.006
			c-0.852-0.242-1.45,0.162-1.648,0.857L37.621,96.317z"/>
		<path fill="#FFFFFF" d="M33.198,99.89l-0.834-0.325l2.587-6.652l0.833,0.324L33.198,99.89z"/>
		<path fill="#FFFFFF" d="M27.375,96.725l-3.213-1.881l0.423-0.723l2.392,1.399l0.98-1.676l-2.178-1.275l0.423-0.723l2.178,1.274
			l1.106-1.89l-2.392-1.4l0.423-0.723l3.213,1.88L27.375,96.725z"/>
		<path fill="#FFFFFF" d="M23.125,86.71l0.015,0.012c0.409-0.141,1.114-0.149,1.798,0.381c1.159,0.898,0.849,2.307,0.04,3.352
			c-0.798,1.031-2.045,1.522-3.158,0.66c-0.669-0.519-0.85-1.079-0.794-1.602l-0.015-0.011l-1.806,2.332l-0.707-0.548l4.37-5.642
			l0.677,0.524L23.125,86.71z M24.331,87.547c-0.797-0.618-1.74-0.084-2.235,0.556c-0.554,0.714-0.75,1.729,0.018,2.324
			c0.767,0.595,1.627,0.105,2.154-0.606C24.748,89.23,25.091,88.135,24.331,87.547z"/>
		<path fill="#FFFFFF" d="M18.678,81.545l0.608,0.617l-0.549,0.541l0.014,0.013c0.58-0.197,1.271,0.029,1.746,0.51
			c0.882,0.895,0.721,1.843-0.208,2.758l-2.053,2.024l-0.628-0.637l1.789-1.763c0.806-0.795,1.025-1.36,0.511-1.948
			c-0.714-0.726-1.618-0.477-2.458,0.353L15.85,85.59l-0.628-0.636L18.678,81.545z"/>
		<path fill="#FFFFFF" d="M12.585,80.354c0.097,0.358,0.255,0.669,0.43,0.895c0.613,0.79,1.664,0.684,2.394,0.118
			c0.684-0.532,1.15-1.484,0.443-2.394c-0.187-0.24-0.496-0.482-0.808-0.589l0.591-0.543c0.363,0.188,0.648,0.509,0.847,0.765
			c0.899,1.158,0.608,2.661-0.49,3.514c-1.166,0.906-2.615,0.778-3.525-0.396c-0.222-0.286-0.44-0.706-0.516-0.974L12.585,80.354z"
			/>
		<path fill="#FFFFFF" d="M11.105,79.04c-0.461-0.243-0.901-0.599-1.224-1.126c-0.725-1.186-0.433-2.022,0.696-2.712l1.714-1.048
			c0.471-0.288,0.68-0.438,0.792-0.529l0.437,0.715l-0.536,0.328l0.01,0.016c0.36,0.025,0.991,0.198,1.418,0.896
			c0.546,0.894,0.538,1.758-0.363,2.309c-1.04,0.635-2.06-0.303-2.542-1.091c-0.184-0.301-0.313-0.512-0.48-0.822
			c-0.715,0.437-0.922,0.92-0.455,1.684c0.263,0.43,0.709,0.793,1.157,0.943L11.105,79.04z M11.596,75.626
			c0.1,0.163,0.182,0.335,0.282,0.498c0.253,0.415,0.943,1.398,1.674,0.952c0.439-0.268,0.417-0.834,0.203-1.184
			c-0.461-0.755-1.176-0.865-1.793-0.488L11.596,75.626z"/>
		<path fill="#FFFFFF" d="M7.537,71.651l0.549,1.161l2.399-1.136c0.508-0.24,0.636-0.68,0.461-1.05
			c-0.118-0.249-0.281-0.393-0.416-0.477l0.688-0.325c0.137,0.155,0.324,0.373,0.446,0.63c0.395,0.835,0.243,1.538-0.634,1.953
			L8.468,73.62l0.468,0.989l-0.653,0.309l-0.468-0.989L6.8,74.41l-0.64-0.686l1.272-0.603l-0.549-1.16L7.537,71.651z"/>
		<path fill="#FFFFFF" d="M4.894,69.873l0.361,0.941l-0.942,0.362l-0.361-0.942L4.894,69.873z M6.246,70.372l-0.32-0.835l4.53-1.737
			l0.32,0.835L6.246,70.372z"/>
		<path fill="#FFFFFF" d="M4.482,65.417c-0.387-1.424,0.382-2.658,1.805-3.045c1.341-0.366,2.716,0.306,3.099,1.71
			c0.385,1.414-0.461,2.689-1.802,3.054C6.161,67.523,4.873,66.849,4.482,65.417z M8.688,64.272
			c-0.274-1.011-1.315-1.21-2.151-0.982c-0.891,0.242-1.606,1.019-1.356,1.937c0.252,0.928,1.263,1.234,2.153,0.991
			C8.17,65.991,8.966,65.292,8.688,64.272z"/>
		<path fill="#FFFFFF" d="M3.595,61.132l-0.112-0.858l0.765-0.1l-0.002-0.018c-0.583-0.194-0.996-0.792-1.083-1.462
			C2.999,57.448,3.7,56.79,4.993,56.621l2.859-0.372l0.116,0.887L5.477,57.46c-1.123,0.147-1.639,0.464-1.584,1.244
			c0.132,1.01,1.002,1.357,2.172,1.204l2.227-0.291l0.116,0.887L3.595,61.132z"/>
	</g>
</g>
</svg>
