<svg version="1.1" xmlns="http://www.w3.org/2000/svg" xmlns:xlink="http://www.w3.org/1999/xlink">

  <defs>
    <style>
      g {
        display: none;
      }
      g:target,
      g:target g {
        display: inline;
      }
      .blau {
        color: #096fab;
      }
      .weiss {
        color: #ffffff;
        fill:#F07D01;
      }
      .medium-gray {
        color: #ffffff;
        fill:#555;
      }
    </style>

    <symbol id="facebook" viewBox="0 0 41 41">
      <title>Facebook</title>
      <path fill="currentColor"  d="M16.543 40.243V24.838h-5.16v-6.12h5.16v-4.823c0-5.239 3.2-8.09 7.876-8.09 2.242 0 4.164.167 4.721.242v5.476h-3.242c-2.541 0-3.031 1.21-3.031 2.979v4.217h5.734l-.783 6.12h-4.951v15.405"/>
    </symbol>

    <symbol id="cross" viewBox="0 0 30 29.937">
      <title>close</title>
      <path fill="currentColor" d="M17.819,14.929L30,27.176l-2.818,2.761L15.001,17.756L2.819,29.937L0,27.176l12.244-12.247
  			L0,2.756L2.819,0l12.182,12.174L27.182,0L30,2.756L17.819,14.929z"/>
    </symbol>
    <symbol id="square" viewBox="0 0 50 50">
      <title>square</title>
<rect fill="currentColor" width="50" height="50"/>
    </symbol>




    <!-- <symbol id="newsletter" viewBox="0 0 50 50" >
      <title>newsletter</title>
      <path fill="currentColor" d="M25,14.637h-9.375v13.64H25V14.637z M28.125,37.363v4.546H12.5v-4.546H28.125z M28.125,10.091v22.727H12.5V10.091H28.125z
    		 M43.75,37.363v4.546h-12.5v-4.546H43.75z M43.75,28.272v4.546h-12.5v-4.546H43.75z M43.75,19.183v4.545h-12.5v-4.545H43.75z
    		 M43.75,10.091v4.545h-12.5v-4.545H43.75z M6.25,44.182v-34.09H3.125v34.09c0,0.605,0.17,1.173,0.463,1.6
    		c0.292,0.43,0.684,0.674,1.1,0.674c0.417,0,0.807-0.248,1.102-0.674C6.084,45.354,6.25,44.789,6.25,44.182z M46.875,44.182V5.546
    		h-37.5v38.636c0,0.781-0.071,1.522-0.267,2.273h36.204c0.416,0,0.807-0.248,1.1-0.674C46.708,45.354,46.875,44.789,46.875,44.182z
    		 M50,1v43.182c0,1.884-0.463,3.511-1.367,4.83C47.729,50.326,46.607,51,45.313,51H4.687c-1.294,0-2.415-0.674-3.32-1.988
    		C0.463,47.696,0,46.065,0,44.182V5.546h6.25V1H50z"/>
    </symbol>
    <symbol id="downloads" viewBox="0 0 50 50" >
      <title>downloads</title>
      <path fill="currentColor" d="M38.459,43.761c0-0.589-0.195-1.058-0.568-1.48c-0.361-0.423-0.837-0.635-1.338-0.635c-0.537,0-0.977,0.21-1.367,0.635
    		c-0.389,0.423-0.586,0.892-0.586,1.48c0,0.528,0.195,1.017,0.586,1.421c0.391,0.421,0.83,0.634,1.367,0.634
    		c0.501,0,0.977-0.211,1.338-0.634C38.264,44.777,38.459,44.289,38.459,43.761z M46.174,43.761c0-0.589-0.195-1.058-0.588-1.48
    		c-0.391-0.423-0.83-0.635-1.365-0.635c-0.49,0-0.974,0.21-1.318,0.635c-0.391,0.423-0.588,0.892-0.588,1.48
    		c0,0.528,0.195,1.017,0.588,1.421c0.345,0.421,0.828,0.634,1.318,0.634c0.535,0,0.977-0.211,1.365-0.634
    		C45.977,44.777,46.174,44.289,46.174,43.761z M50,36.464v10.409c0,0.847-0.264,1.587-0.85,2.198C48.613,49.683,47.93,50,47.1,50
    		H2.91c-0.829,0-1.512-0.317-2.05-0.929C0.273,48.46,0,47.718,0,46.873V36.464c0-0.906,0.272-1.646,0.858-2.221
    		c0.538-0.635,1.222-0.906,2.05-0.906h13.965l4.053,4.396c1.171,1.209,2.51,1.844,4.072,1.844c1.561,0,2.912-0.635,4.083-1.844
    		l4.102-4.396H47.1c0.83,0,1.514,0.271,2.051,0.906C49.736,34.817,50,35.558,50,36.464z M40.234,17.956
    		c0.335,0.846,0.225,1.631-0.41,2.267L26.348,34.771c-0.342,0.423-0.781,0.635-1.348,0.635c-0.557,0-0.997-0.212-1.339-0.635
    		L10.187,20.222c-0.637-0.635-0.753-1.42-0.42-2.267c0.333-0.847,0.957-1.269,1.787-1.269h7.667V2.092
    		c0-0.588,0.195-1.058,0.586-1.48C20.199,0.19,20.636,0,21.173,0h7.667c0.536,0,0.977,0.188,1.366,0.612
    		c0.389,0.425,0.587,0.892,0.587,1.48v14.594h7.666C39.289,16.687,39.902,17.109,40.234,17.956z"/>
    </symbol>
    <symbol id="kontakt" viewBox="0 0 50 50" >
      <title>Kontakt</title>
      <path fill="currentColor" d="M50,39.481c0,0.631-0.126,1.465-0.366,2.511c-0.248,1.05-0.488,1.831-0.736,2.419c-0.488,1.223-1.953,2.439-4.342,3.762
    		C42.354,49.392,40.163,50,37.96,50c-0.631,0-1.27-0.024-1.9-0.122c-0.584-0.098-1.27-0.242-2.006-0.436
    		c-0.781-0.224-1.313-0.391-1.703-0.541c-0.346-0.098-1.029-0.338-1.955-0.729c-0.93-0.344-1.518-0.541-1.756-0.637
    		c-2.299-0.828-4.395-1.805-6.206-2.932c-2.975-1.855-6.1-4.439-9.375-7.662c-3.224-3.275-5.807-6.4-7.665-9.372
    		c-1.126-1.817-2.104-3.908-2.931-6.211c-0.098-0.235-0.293-0.821-0.637-1.757C1.436,18.682,1.194,18,1.099,17.648
    		c-0.151-0.391-0.318-0.919-0.542-1.7c-0.194-0.741-0.337-1.425-0.436-2.01C0.025,13.313,0,12.668,0,12.043
    		c0-2.206,0.61-4.395,1.827-6.601c1.322-2.384,2.539-3.848,3.762-4.337c0.586-0.253,1.368-0.487,2.418-0.741
    		C9.053,0.128,9.888,0,10.52,0c0.344,0,0.586,0.03,0.736,0.126c0.435,0.138,1.074,1.017,1.9,2.677
    		c0.248,0.448,0.585,1.075,1.028,1.913c0.487,0.821,0.879,1.602,1.27,2.246c0.392,0.684,0.729,1.309,1.075,1.896
    		c0.099,0.099,0.293,0.392,0.632,0.908c0.345,0.517,0.586,0.908,0.782,1.241c0.15,0.35,0.249,0.684,0.249,1.034
    		c0,0.487-0.344,1.075-1.029,1.757c-0.684,0.723-1.413,1.368-2.194,1.953c-0.782,0.627-1.518,1.213-2.2,1.896
    		c-0.682,0.685-1.021,1.229-1.021,1.62c0,0.235,0.044,0.487,0.194,0.821c0.099,0.293,0.195,0.546,0.293,0.741
    		c0.098,0.138,0.241,0.43,0.488,0.821c0.24,0.392,0.391,0.643,0.436,0.684c1.757,3.223,3.86,6.014,6.152,8.357
    		c2.344,2.291,5.13,4.395,8.354,6.15c0.043,0.047,0.291,0.193,0.684,0.438c0.391,0.248,0.684,0.391,0.826,0.488
    		c0.193,0.098,0.443,0.193,0.736,0.293c0.336,0.146,0.586,0.193,0.826,0.193c0.393,0,0.93-0.34,1.615-1.023
    		c0.684-0.684,1.27-1.416,1.898-2.197c0.586-0.781,1.227-1.514,1.953-2.193c0.686-0.686,1.27-1.029,1.758-1.029
    		c0.346,0,0.684,0.1,1.029,0.248c0.338,0.195,0.729,0.436,1.245,0.781c0.513,0.34,0.806,0.537,0.903,0.633
    		c0.586,0.344,1.217,0.684,1.9,1.076c0.637,0.391,1.42,0.781,2.246,1.27c0.834,0.439,1.465,0.781,1.906,1.025
    		c1.662,0.83,2.541,1.465,2.684,1.9C49.972,38.896,50,39.138,50,39.481z"/>
    </symbol>
    <symbol id="spenden" viewBox="0 0 50 50" >
      <title>Spenden</title>
      <path fill="currentColor" d="M31.093,39.136c0.669,0.327,1.543,0.521,2.314,0.521c1.638,0,3.057-0.603,3.945-1.694c0.778-0.832,1.074-1.837,0.93-2.842
        C35.157,35.331,32.52,36.941,31.093,39.136z"/>
      <path fill="currentColor" d="M38.026,36.838c0.322-0.646,0.327-1.315,0.207-1.966c-0.106-0.851-0.542-1.601-1.2-2.229l-0.12,0.25
        C36.417,34.313,36.913,35.814,38.026,36.838z"/>
        <path fill="currentColor" d="M40.419,37.962c1.328,0.295,2.649,0,3.753-0.626c-0.921-0.583-1.995-1.063-3.184-1.256
          C40.87,36.754,40.663,37.372,40.419,37.962z"/>
        <path fill="currentColor" d="M48.904,20.673l-8.033-8.829c-0.318-0.409-0.804-0.751-1.318-1.031c-0.013,0-0.059,0-0.104,0l0,0
          c-0.554-0.289-1.094-0.473-1.758-0.565c0,0-11.356-1.41-13.628-2.913C12.525,0,12.525,0,12.525,0L-0.112,14.573l11.726,6.853
          c-1.094,4.327,1.563,6.098,3.986,7.62l7.249,4.573l7.698,5.256c0.864,0.51,1.868,0.784,2.861,0.784
          c1.638,0,3.057-0.604,3.945-1.694c0.778-0.839,1.104-1.963,0.881-3.09c-0.168-1.087-0.881-2.065-1.86-2.73l-8.495-5.543
          c-1.779-1.403-2.114-3.671-0.652-5.357c1.458-1.785,4.31-2.161,6.394-0.945l6.155,4.24l-2.256,6.573
          c1.152,0.821,1.96,1.877,2.3,3.101l0.286,0.094c2.03,0.092,3.918,0.757,5.383,1.775c0.215-0.268,0.424-0.58,0.551-0.934
          l3.626-10.716c0.117-0.326,0.195-0.646,0.195-0.961C49.993,22.466,49.645,21.531,48.904,20.673z"/>
      <path fill="currentColor" d="M40.988,36.083c-0.128,1.147-0.66,2.264-1.448,3.271c-1.409,1.606-3.718,2.562-6.133,2.562
        c-0.766,0-1.566-0.084-2.314-0.273c-0.134,0.421-0.209,0.869-0.209,1.32c0,3.939,3.731,7.038,8.246,7.038
        c4.587,0,8.311-3.099,8.311-7.038C47.442,39.576,44.723,36.754,40.988,36.083z"/>
    </symbol>
    <symbol id="facebook" viewBox="0 0 50 50" >
      <title>facebook</title>
      <path fill="currentColor" d="M47.239,0c0.739,0,1.42,0.277,1.953,0.817C49.733,1.355,50,2.016,50,2.771V47.23c0,0.755-0.267,1.418-0.808,1.955
    		C48.659,49.724,47.979,50,47.239,50H34.5V30.628h6.493l0.977-7.545H34.5v-4.821c0-1.209,0.246-2.132,0.781-2.735
    		c0.488-0.602,1.503-0.915,2.976-0.915l3.958-0.026V7.847c-1.367-0.195-3.282-0.293-5.789-0.293c-2.954,0-5.301,0.859-7.08,2.603
    		c-1.779,1.742-2.659,4.187-2.659,7.359v5.567h-6.499v7.545h6.499v19.371H2.762c-0.742,0-1.422-0.276-1.954-0.817
    		C0.267,48.645,0,47.985,0,47.229V2.771c0-0.755,0.267-1.416,0.808-1.952C1.34,0.278,2.02,0.002,2.762,0.002L47.239,0L47.239,0z"/>
    </symbol>
    <symbol id="puzzleteil" viewBox="0 0 100 100" >
      <title>Puzzleteil</title>
      <path fill="#ffffff" d="M56.71,13.229l-2.061,5.594l-19.631-8.74l-8.82,19.811l5.719,2.115c4.544,1.69,5.852,6.904,3.873,11.35
      	c-1.98,4.446-6.729,6.962-11.027,4.717l-5.396-2.834l-8.751,19.654l19.63,8.74l-2.865,5.471c-2.246,4.298,0.248,9.097,4.693,11.077
      	c4.447,1.979,9.693,0.597,11.384-3.947l2.138-5.767l19.834,8.83l8.75-19.654l-5.742-2.126c-4.545-1.692-5.854-6.904-3.873-11.351
      	c1.979-4.445,6.729-6.962,11.025-4.716l5.424,2.844l8.819-19.81l-19.833-8.83l2.777-5.273c2.246-4.298-0.27-9.047-4.717-11.026
      	C63.613,7.377,58.401,8.686,56.71,13.229z"/>
        </symbol>
        <symbol id="down-arrow"  viewBox="0 15.772 50 18.455" >
          <title>down-arrow</title>
          <line fill="none" stroke="currentColor" stroke-width="2" stroke-miterlimit="10" x1="25.169" y1="34.228" x2="0" y2="15.772"/>
    			<line fill="none" stroke="currentColor" stroke-width="2" stroke-miterlimit="10" x1="24.823" y1="34.228" x2="50" y2="15.772"/>
    		</symbol>
        <symbol id="arrow-up"  viewBox="0 15.772 50 18.455">
          <title>arrow-up</title>
          <line fill="none" stroke="currentColor" stroke-width="2" stroke-miterlimit="10" x1="0" y1="34.228" x2="25.169" y2="15.772"/>
    			<line fill="none" stroke="currentColor" stroke-width="2" stroke-miterlimit="10" x1="50" y1="34.228" x2="24.823" y2="15.772"/>
    			</symbol>
 -->

<svg xmlns="http://www.w3.org/2000/svg" viewBox="0 0 512 512"><path d="M452 432c0 11-9 20-20 20s-20-9-20-20 9-20 20-20 20 9 20 20zm-84-20c-11 0-20 9-20 20s9 20 20 20 20-9 20-20-9-20-20-20zm144-48v104c0 24.3-19.7 44-44 44H44c-24.3 0-44-19.7-44-44V364c0-24.3 19.7-44 44-44h99.4L87 263.6c-25.2-25.2-7.3-68.3 28.3-68.3H168V40c0-22.1 17.9-40 40-40h96c22.1 0 40 17.9 40 40v155.3h52.7c35.6 0 53.4 43.1 28.3 68.3L368.6 320H468c24.3 0 44 19.7 44 44zm-261.7 17.7c3.1 3.1 8.2 3.1 11.3 0L402.3 241c5-5 1.5-13.7-5.7-13.7H312V40c0-4.4-3.6-8-8-8h-96c-4.4 0-8 3.6-8 8v187.3h-84.7c-7.1 0-10.7 8.6-5.7 13.7l140.7 140.7zM480 364c0-6.6-5.4-12-12-12H336.6l-52.3 52.3c-15.6 15.6-41 15.6-56.6 0L175.4 352H44c-6.6 0-12 5.4-12 12v104c0 6.6 5.4 12 12 12h424c6.6 0 12-5.4 12-12V364z"/></svg>





  </defs>
  <g id="arrow-square-medium-gray">
  <use class="medium-gray" xlink:href="#arrow-square" />
  </g>
<g id="arrow-square-weiss">
<use class="weiss" xlink:href="#arrow-square" />
</g>
</svg>
